<svg width="37" height="36" viewBox="0 0 37 36" fill="none" xmlns="http://www.w3.org/2000/svg">
<path d="M6.5 13.5C6.5 9.25736 6.5 7.13604 7.81802 5.81802C9.13604 4.5 11.2574 4.5 15.5 4.5H21.5C25.7426 4.5 27.864 4.5 29.182 5.81802C30.5 7.13604 30.5 9.25736 30.5 13.5V23.7414C30.5 27.7663 30.5 29.7788 29.2336 30.3943C27.9671 31.0099 26.3847 29.7665 23.2198 27.2798L22.2069 26.484C20.4274 25.0858 19.5376 24.3867 18.5 24.3867C17.4624 24.3867 16.5726 25.0858 14.7931 26.484L13.7802 27.2798C10.6153 29.7665 9.03288 31.0099 7.76644 30.3943C6.5 29.7788 6.5 27.7663 6.5 23.7414V13.5Z" stroke="white" stroke-width="4"/>
</svg>
