<svg width="96" height="40" viewBox="0 0 96 40" fill="none" xmlns="http://www.w3.org/2000/svg">
<rect width="96" height="40" rx="15" fill="white" fill-opacity="0.1"/>
<circle cx="24" cy="20" r="5.33333" fill="white"/>
<path d="M24 10.6667V8" stroke="white" stroke-width="2" stroke-linecap="round"/>
<path d="M24 32V29.3333" stroke="white" stroke-width="2" stroke-linecap="round"/>
<path d="M30.5997 13.4L32.4854 11.5143" stroke="white" stroke-width="2" stroke-linecap="round"/>
<path d="M15.5148 28.4859L17.4004 26.6003" stroke="white" stroke-width="2" stroke-linecap="round"/>
<path d="M33.3333 20L36 20" stroke="white" stroke-width="2" stroke-linecap="round"/>
<path d="M12 20L14.6667 20" stroke="white" stroke-width="2" stroke-linecap="round"/>
<path d="M30.5997 26.6L32.4854 28.4857" stroke="white" stroke-width="2" stroke-linecap="round"/>
<path d="M15.5148 11.5141L17.4004 13.3997" stroke="white" stroke-width="2" stroke-linecap="round"/>
<rect x="48" width="48" height="40" rx="15" fill="white"/>
<path d="M71.4997 10.6799C71.6653 10.6711 71.8321 10.6667 71.9999 10.6667C77.1546 10.6667 81.3333 14.8454 81.3333 20C81.3333 25.1547 77.1546 29.3334 71.9999 29.3334C70.2308 29.3334 68.5766 28.8411 67.1668 27.9861C72.0889 27.7262 75.9999 23.6528 75.9999 18.666C75.9999 15.2805 74.1974 12.316 71.4997 10.6799Z" fill="#484848"/>
<path d="M61.4 14.2L61.4 14.2C61.5014 14.5041 61.5521 14.6562 61.6028 14.7225C61.8029 14.9843 62.1971 14.9843 62.3972 14.7225C62.4479 14.6562 62.4986 14.5041 62.6 14.2L62.6 14.2C62.6818 13.9547 62.7227 13.832 62.7756 13.721C62.9729 13.3067 63.3067 12.9729 63.721 12.7756C63.832 12.7227 63.9547 12.6818 64.2 12.6L64.2 12.6C64.5041 12.4986 64.6562 12.4479 64.7225 12.3972C64.9843 12.1971 64.9843 11.8029 64.7225 11.6028C64.6562 11.5521 64.5041 11.5014 64.2 11.4L64.2 11.4C63.9547 11.3182 63.832 11.2773 63.721 11.2244C63.3067 11.0271 62.9729 10.6933 62.7756 10.279C62.7227 10.168 62.6818 10.0453 62.6 9.8C62.4986 9.49588 62.4479 9.34382 62.3972 9.2775C62.1971 9.01569 61.8029 9.01569 61.6028 9.2775C61.5521 9.34382 61.5014 9.49588 61.4 9.8C61.3182 10.0453 61.2773 10.168 61.2244 10.279C61.0271 10.6933 60.6933 11.0271 60.279 11.2244C60.168 11.2773 60.0453 11.3182 59.8 11.4C59.4959 11.5014 59.3438 11.5521 59.2775 11.6028C59.0157 11.8029 59.0157 12.1971 59.2775 12.3972C59.3438 12.4479 59.4959 12.4986 59.8 12.6C60.0453 12.6818 60.168 12.7227 60.279 12.7756C60.6933 12.9729 61.0271 13.3067 61.2244 13.721C61.2773 13.832 61.3182 13.9547 61.4 14.2Z" fill="#484848"/>
</svg>
