<svg width="24" height="24" viewBox="0 0 24 24" fill="none" xmlns="http://www.w3.org/2000/svg">
<path d="M12 21C16.9706 21 21 16.9706 21 12C21 7.02944 16.9706 3 12 3C7.02944 3 3 7.02944 3 12C3 16.9706 7.02944 21 12 21Z" stroke="white" stroke-width="2"/>
<path d="M15 10C15 8.89543 13.6569 8 12 8C10.3431 8 9 8.89543 9 10C9 11.1046 10.3431 12 12 12" stroke="white" stroke-width="2" stroke-linecap="round"/>
<path d="M9 14C9 15.1046 10.3431 16 12 16C13.6569 16 15 15.1046 15 14C15 12.8954 13.6569 12 12 12" stroke="white" stroke-width="2" stroke-linecap="round"/>
<path d="M12 6V18" stroke="white" stroke-width="2" stroke-linecap="round"/>
</svg>
