<svg width="52" height="36" viewBox="0 0 52 36" fill="none" xmlns="http://www.w3.org/2000/svg">
<g filter="url(#filter0_b_4534_4240)">
<rect width="52" height="36" rx="15" fill="white" fill-opacity="0.2"/>
<path d="M22.747 10.589C24.811 7.78752 28.6507 6.98471 31.6642 8.72456V8.72456C34.6777 10.4644 35.9023 14.1911 34.5082 17.3793L33.4186 19.8711C33.2548 20.2457 33.1729 20.433 33.1013 20.6222C32.7885 21.4491 32.6149 22.3222 32.5876 23.2059C32.5814 23.4081 32.5854 23.6125 32.5935 24.0213L32.6207 25.4034C32.6516 26.9738 32.6671 27.759 32.1643 28.056C31.6615 28.3529 30.9813 27.9602 29.6211 27.1749L16.7074 19.7191C15.3471 18.9338 14.6669 18.5411 14.6727 17.9572C14.6785 17.3733 15.3662 16.9941 16.7417 16.2357L17.9523 15.5682C18.3103 15.3708 18.4893 15.272 18.6614 15.1655C19.413 14.7 20.0823 14.1132 20.642 13.4288C20.7701 13.2722 20.8914 13.1076 21.1339 12.7785L22.747 10.589Z" stroke="white" stroke-width="2"/>
<path d="M19.7664 23.5366C19.5954 24.1745 19.6398 24.851 19.8925 25.4611C20.1452 26.0712 20.5922 26.5809 21.1641 26.9111C21.7361 27.2413 22.401 27.3736 23.0557 27.2874C23.7105 27.2012 24.3185 26.9013 24.7855 26.4344" stroke="white" stroke-width="2" stroke-linecap="square" stroke-linejoin="bevel"/>
</g>
<defs>
<filter id="filter0_b_4534_4240" x="-30" y="-30" width="112" height="96" filterUnits="userSpaceOnUse" color-interpolation-filters="sRGB">
<feFlood flood-opacity="0" result="BackgroundImageFix"/>
<feGaussianBlur in="BackgroundImageFix" stdDeviation="15"/>
<feComposite in2="SourceAlpha" operator="in" result="effect1_backgroundBlur_4534_4240"/>
<feBlend mode="normal" in="SourceGraphic" in2="effect1_backgroundBlur_4534_4240" result="shape"/>
</filter>
</defs>
</svg>
