<svg width="24" height="24" viewBox="0 0 24 24" fill="none" xmlns="http://www.w3.org/2000/svg">
<path d="M2 8C2 6.34315 3.34315 5 5 5H17V19H5C3.34315 19 2 17.6569 2 16V8Z" stroke="white" stroke-width="2"/>
<rect x="2" y="5" width="15" height="14" rx="3" stroke="white" stroke-width="2"/>
<path fill-rule="evenodd" clip-rule="evenodd" d="M19 4H18V8.5V20H19C21.2091 20 23 18.2091 23 16V8C23 5.79086 21.2091 4 19 4ZM18 8.5C18 7.67157 18.6716 7 19.5 7C20.3284 7 21 7.67157 21 8.5C21 9.32843 20.3284 10 19.5 10C18.6716 10 18 9.32843 18 8.5ZM18.5 11.5C18.5 11.2239 18.7239 11 19 11H20C20.2761 11 20.5 11.2239 20.5 11.5C20.5 11.7761 20.2761 12 20 12H19C18.7239 12 18.5 11.7761 18.5 11.5ZM19 13C18.7239 13 18.5 13.2239 18.5 13.5C18.5 13.7761 18.7239 14 19 14H20C20.2761 14 20.5 13.7761 20.5 13.5C20.5 13.2239 20.2761 13 20 13H19Z" fill="white"/>
<path d="M7.48156 14.9532L11.8456 12.2785C12.0515 12.1523 12.0515 11.8476 11.8456 11.7215L7.48156 9.0468C7.26967 8.91688 7 9.07285 7 9.32534V14.6746C7 14.9271 7.26967 15.0831 7.48156 14.9532Z" stroke="white" stroke-width="1.5"/>
</svg>
