<svg width="24" height="24" viewBox="0 0 24 24" fill="none" xmlns="http://www.w3.org/2000/svg">
<circle cx="12" cy="12" r="9" stroke="white" stroke-width="2"/>
<circle cx="12" cy="18" r="0.5" fill="white" stroke="white"/>
<path d="M13 16V14.5811H11V16H13ZM16 10.4189V9.90569H14V10.4189H16ZM12.0943 6H12V8H12.0943V6ZM12 6C9.79086 6 8 7.79086 8 10H10C10 8.89543 10.8954 8 12 8V6ZM16 9.90569C16 7.74864 14.2514 6 12.0943 6V8C13.1468 8 14 8.85321 14 9.90569H16ZM13.8162 13.4487C15.1204 13.014 16 11.7935 16 10.4189H14C14 10.9327 13.6712 11.3888 13.1838 11.5513L13.8162 13.4487ZM13 14.5811C13 14.0673 13.3288 13.6112 13.8162 13.4487L13.1838 11.5513C11.8796 11.986 11 13.2065 11 14.5811H13Z" fill="white"/>
</svg>
