<svg width="37" height="36" viewBox="0 0 37 36" fill="none" xmlns="http://www.w3.org/2000/svg">
<path d="M21.6801 4.80099L20.1875 4.95025V4.95025L21.6801 4.80099ZM21.7539 5.53891L20.2613 5.68816V5.68816L21.7539 5.53891ZM22.5517 8.2182L23.1258 6.83238L23.1258 6.83238L22.5517 8.2182ZM25.0104 6.88781L25.9603 8.04875H25.9603L25.0104 6.88781ZM25.5844 6.41823L24.6345 5.25729L24.6345 5.2573L25.5844 6.41823ZM26.9678 5.62036L26.8931 7.11849L26.9678 5.62036ZM28.2651 6.55193L27.2044 7.61259L27.2044 7.61259L28.2651 6.55193ZM29.948 8.23488L31.0087 7.17422L31.0087 7.17422L29.948 8.23488ZM30.0817 10.9156L28.9208 9.96571L30.0817 10.9156ZM29.6121 11.4895L30.773 12.4394L29.6121 11.4895ZM28.2817 13.9483L29.6675 13.3742L29.6675 13.3742L28.2817 13.9483ZM30.961 14.7461L30.8117 16.2387L30.961 14.7461ZM31.699 14.8199L31.8483 13.3273L31.699 14.8199ZM33.2415 15.234L34.3536 14.2275L34.3536 14.2275L33.2415 15.234ZM33.2415 20.766L32.1293 19.7595L33.2415 20.766ZM31.699 21.1801V22.6801H31.7738L31.8483 22.6727L31.699 21.1801ZM31.699 21.1801V19.6801H31.6242L31.5498 19.6875L31.699 21.1801ZM30.9616 21.2538L30.8123 19.7613L30.9616 21.2538ZM28.2823 22.0517L26.8965 21.4777L26.8965 21.4777L28.2823 22.0517ZM29.6127 24.5104L30.7736 23.5605L30.7736 23.5605L29.6127 24.5104ZM30.0818 25.0838L28.9208 26.0336L28.9208 26.0336L30.0818 25.0838ZM30.8797 26.4672L32.3778 26.542V26.542L30.8797 26.4672ZM26.9679 30.379L26.8932 28.8808H26.8932L26.9679 30.379ZM25.5844 29.5811L26.5343 28.4202L26.5343 28.4202L25.5844 29.5811ZM25.0105 29.1115L24.0607 30.2725L25.0105 29.1115ZM21.754 30.4604L20.2614 30.3112L21.754 30.4604ZM21.6801 31.199L20.1875 31.0498V31.0498L21.6801 31.199ZM21.266 32.7415L22.2725 33.8536L22.2725 33.8536L21.266 32.7415ZM15.734 32.7415L14.7275 33.8536L14.7275 33.8536L15.734 32.7415ZM15.3199 31.199L16.8125 31.0498V31.0497L15.3199 31.199ZM15.2461 30.461L13.7535 30.6103V30.6103L15.2461 30.461ZM14.4483 27.7817L15.0223 26.3959L15.0223 26.3959L14.4483 27.7817ZM11.9896 29.1121L12.9394 30.273L12.9394 30.273L11.9896 29.1121ZM11.4155 29.5818L10.4656 28.4208H10.4656L11.4155 29.5818ZM10.032 30.3797L9.9573 31.8778L9.95731 31.8778L10.032 30.3797ZM8.73481 29.4481L7.67415 30.5087V30.5087L8.73481 29.4481ZM7.05186 27.7651L8.11252 26.7045V26.7045L7.05186 27.7651ZM6.91816 25.0844L8.0791 26.0343L8.0791 26.0343L6.91816 25.0844ZM7.3878 24.5104L6.22687 23.5606L6.22687 23.5606L7.3878 24.5104ZM6.0389 21.2539L6.18816 19.7613H6.18815L6.0389 21.2539ZM5.30099 21.1801L5.45025 19.6875L5.3758 19.6801H5.30099V21.1801ZM5.30097 21.1801L5.15171 22.6727L5.22616 22.6801H5.30097V21.1801ZM3.75855 20.766L4.87073 19.7595L4.87073 19.7595L3.75855 20.766ZM3.75855 15.234L2.64637 14.2275L2.64637 14.2275L3.75855 15.234ZM5.30099 14.8199L5.15174 13.3273H5.15174L5.30099 14.8199ZM6.03946 14.7461L5.89021 13.2535H5.89021L6.03946 14.7461ZM8.71875 13.9482L10.1046 14.5222L10.1046 14.5222L8.71875 13.9482ZM7.38837 11.4895L8.5493 10.5396L7.38837 11.4895ZM6.91823 10.9149L5.7573 11.8647L5.7573 11.8647L6.91823 10.9149ZM7.05193 8.2342L5.99127 7.17354L5.99127 7.17354L7.05193 8.2342ZM8.73488 6.55125L9.79554 7.61191H9.79554L8.73488 6.55125ZM11.4156 6.41755L12.3654 5.25662V5.25661L11.4156 6.41755ZM11.9896 6.88723L11.0398 8.04816L11.0398 8.04816L11.9896 6.88723ZM15.2462 5.53832L16.7387 5.68757V5.68757L15.2462 5.53832ZM15.3199 4.80099L13.8273 4.65174V4.65174L15.3199 4.80099ZM15.734 3.25855L14.7275 2.14637L14.7275 2.14637L15.734 3.25855ZM23.1727 4.65174C23.1339 4.26368 23.0933 3.82922 23.0093 3.46693C22.9157 3.06293 22.7298 2.56017 22.2725 2.14637L20.2595 4.37073C20.1843 4.30266 20.132 4.22709 20.1011 4.1662C20.0753 4.11514 20.0756 4.0961 20.0869 4.14457C20.0984 4.19433 20.1131 4.27768 20.131 4.42082C20.1488 4.56349 20.1656 4.73093 20.1875 4.95025L23.1727 4.65174ZM23.2464 5.38965L23.1727 4.65174L20.1875 4.95025L20.2613 5.68816L23.2464 5.38965ZM23.1258 6.83238C23.5248 6.99766 23.5373 7.3408 23.4614 7.0393C23.3851 6.73568 23.3332 6.25712 23.2464 5.38965L20.2613 5.68816C20.3379 6.45422 20.4086 7.20083 20.5521 7.77122C20.6961 8.34373 21.0259 9.20975 21.9777 9.60402L23.1258 6.83238ZM24.0606 5.72688C23.3858 6.27894 23.0108 6.58065 22.7421 6.74133C22.4753 6.90089 22.7267 6.66709 23.1258 6.83238L21.9777 9.60401C22.9296 9.99828 23.7751 9.61908 24.2818 9.3161C24.7866 9.01424 25.3644 8.53627 25.9603 8.04875L24.0606 5.72688ZM24.6345 5.2573L24.0606 5.72688L25.9603 8.04875L26.5342 7.57917L24.6345 5.2573ZM27.0426 4.12222C26.4266 4.0915 25.9397 4.31557 25.5878 4.535C25.2722 4.73178 24.9364 5.01033 24.6345 5.25729L26.5342 7.57917C26.7048 7.43959 26.8351 7.3331 26.9486 7.2448C27.0624 7.1562 27.1318 7.10769 27.1751 7.08066C27.2174 7.05433 27.2041 7.06804 27.1497 7.08585C27.0849 7.10709 26.9944 7.12355 26.8931 7.11849L27.0426 4.12222ZM29.3257 5.49127C29.05 5.2155 28.7435 4.90491 28.4491 4.67771C28.1207 4.42435 27.6585 4.15294 27.0426 4.12222L26.8931 7.11849C26.7918 7.11344 26.7035 7.08807 26.6411 7.06048C26.5887 7.03734 26.5769 7.02239 26.6163 7.05278C26.6567 7.08399 26.7209 7.13917 26.8254 7.23865C26.9295 7.33781 27.0485 7.45674 27.2044 7.61259L29.3257 5.49127ZM31.0087 7.17422L29.3257 5.49127L27.2044 7.61259L28.8874 9.29554L31.0087 7.17422ZM32.3777 9.45738C32.347 8.84145 32.0756 8.37921 31.8222 8.05089C31.595 7.75646 31.2844 7.44999 31.0087 7.17422L28.8874 9.29554C29.0432 9.4514 29.1621 9.57046 29.2613 9.67456C29.3608 9.77902 29.416 9.84321 29.4472 9.88365C29.4776 9.92305 29.4626 9.91126 29.4395 9.8589C29.4119 9.79646 29.3865 9.70813 29.3815 9.60682L32.3777 9.45738ZM31.2427 11.8654C31.4896 11.5636 31.7682 11.2277 31.9649 10.9122C32.1844 10.5602 32.4084 10.0733 32.3777 9.45738L29.3815 9.60682C29.3764 9.50551 29.3929 9.41509 29.4141 9.35021C29.4319 9.29581 29.4456 9.2826 29.4193 9.32482C29.3923 9.36817 29.3438 9.43753 29.2551 9.55136C29.1668 9.66482 29.0604 9.79512 28.9208 9.96571L31.2427 11.8654ZM30.773 12.4394L31.2427 11.8654L28.9208 9.96571L28.4512 10.5397L30.773 12.4394ZM29.6675 13.3742C29.8328 13.7733 29.599 14.0247 29.7586 13.7579C29.9193 13.4892 30.221 13.1141 30.773 12.4394L28.4512 10.5397C27.9636 11.1355 27.4857 11.7134 27.1838 12.2182C26.8808 12.7249 26.5016 13.5704 26.8959 14.5223L29.6675 13.3742ZM31.1103 13.2535C30.2428 13.1668 29.7642 13.1149 29.4606 13.0386C29.1591 12.9627 29.5022 12.9752 29.6675 13.3742L26.8959 14.5223C27.2902 15.4741 28.1562 15.8039 28.7287 15.9479C29.2991 16.0914 30.0457 16.1621 30.8117 16.2387L31.1103 13.2535ZM31.8483 13.3273L31.1103 13.2535L30.8117 16.2387L31.5497 16.3125L31.8483 13.3273ZM34.3536 14.2275C33.9398 13.7702 33.4371 13.5843 33.0331 13.4907C32.6708 13.4067 32.2363 13.3662 31.8483 13.3273L31.5497 16.3125C31.7691 16.3344 31.9365 16.3512 32.0792 16.369C32.2223 16.3869 32.3057 16.4016 32.3554 16.4131C32.4039 16.4244 32.3849 16.4247 32.3338 16.3989C32.2729 16.368 32.1973 16.3157 32.1293 16.2405L34.3536 14.2275ZM35 16.81C35 16.42 35.0029 15.9836 34.9554 15.6148C34.9024 15.2035 34.7674 14.6847 34.3536 14.2275L32.1293 16.2405C32.0612 16.1653 32.0167 16.0849 31.992 16.0212C31.9714 15.9678 31.9736 15.9489 31.98 15.9983C31.9865 16.0489 31.9929 16.1333 31.9964 16.2776C31.9999 16.4213 32 16.5896 32 16.81H35ZM35 19.19V16.81H32V19.19H35ZM34.3536 21.7725C34.7674 21.3153 34.9024 20.7965 34.9554 20.3852C35.0029 20.0164 35 19.58 35 19.19H32C32 19.4104 31.9999 19.5787 31.9964 19.7224C31.9929 19.8667 31.9865 19.9511 31.98 20.0017C31.9736 20.0511 31.9714 20.0322 31.992 19.9788C32.0167 19.9151 32.0612 19.8347 32.1293 19.7595L34.3536 21.7725ZM31.8483 22.6727C32.2363 22.6338 32.6708 22.5933 33.0331 22.5093C33.4371 22.4157 33.9398 22.2298 34.3536 21.7725L32.1293 19.7595C32.1973 19.6843 32.2729 19.632 32.3338 19.6011C32.3849 19.5753 32.4039 19.5756 32.3554 19.5869C32.3057 19.5984 32.2223 19.6131 32.0792 19.631C31.9365 19.6488 31.7691 19.6656 31.5498 19.6875L31.8483 22.6727ZM31.699 22.6801H31.699V19.6801H31.699V22.6801ZM31.1108 22.7464L31.8483 22.6727L31.5498 19.6875L30.8123 19.7613L31.1108 22.7464ZM29.6681 22.6257C29.5028 23.0248 29.1597 23.0372 29.4612 22.9614C29.7648 22.885 30.2434 22.8331 31.1108 22.7464L30.8123 19.7613C30.0463 19.8379 29.2997 19.9086 28.7293 20.052C28.1567 20.1961 27.2907 20.5258 26.8965 21.4777L29.6681 22.6257ZM30.7736 23.5605C30.2215 22.8858 29.9198 22.5107 29.7591 22.242C29.5996 21.9752 29.8334 22.2267 29.6681 22.6257L26.8965 21.4777C26.5022 22.4295 26.8814 23.275 27.1844 23.7817C27.4862 24.2865 27.9642 24.8644 28.4517 25.4603L30.7736 23.5605ZM31.2427 24.1339L30.7736 23.5605L28.4517 25.4602L28.9208 26.0336L31.2427 24.1339ZM32.3778 26.542C32.4085 25.926 32.1844 25.4391 31.965 25.0872C31.7682 24.7716 31.4897 24.4357 31.2427 24.1339L28.9208 26.0336C29.0604 26.2042 29.1669 26.3345 29.2552 26.448C29.3438 26.5618 29.3923 26.6312 29.4194 26.6745C29.4457 26.7167 29.432 26.7035 29.4142 26.6491C29.3929 26.5842 29.3765 26.4938 29.3815 26.3925L32.3778 26.542ZM31.0088 28.8251C31.2845 28.5493 31.5951 28.2429 31.8223 27.9484C32.0757 27.6201 32.3471 27.1579 32.3778 26.542L29.3815 26.3925C29.3866 26.2912 29.4119 26.2029 29.4395 26.1404C29.4627 26.0881 29.4776 26.0763 29.4472 26.1157C29.416 26.1561 29.3609 26.2203 29.2614 26.3248C29.1622 26.4289 29.0433 26.5479 28.8874 26.7038L31.0088 28.8251ZM31.0087 28.8251L31.0088 28.8251L28.8874 26.7038L28.8874 26.7038L31.0087 28.8251ZM29.3258 30.5081L31.0087 28.8251L28.8874 26.7038L27.2045 28.3867L29.3258 30.5081ZM27.0426 31.8771C27.6586 31.8464 28.1208 31.575 28.4491 31.3216C28.7436 31.0944 29.05 30.7838 29.3258 30.5081L27.2045 28.3867C27.0486 28.5426 26.9296 28.6615 26.8255 28.7607C26.721 28.8602 26.6568 28.9153 26.6164 28.9466C26.577 28.9769 26.5888 28.962 26.6411 28.9389C26.7036 28.9113 26.7919 28.8859 26.8932 28.8808L27.0426 31.8771ZM24.6346 30.742C24.9364 30.989 25.2723 31.2676 25.5879 31.4643C25.9398 31.6838 26.4267 31.9078 27.0426 31.8771L26.8932 28.8808C26.9945 28.8758 27.0849 28.8922 27.1498 28.9135C27.2042 28.9313 27.2174 28.945 27.1752 28.9187C27.1318 28.8916 27.0625 28.8431 26.9487 28.7545C26.8352 28.6662 26.7049 28.5597 26.5343 28.4202L24.6346 30.742ZM24.0607 30.2725L24.6346 30.742L26.5343 28.4202L25.9604 27.9506L24.0607 30.2725ZM23.1258 29.167C22.7268 29.3322 22.4753 29.0984 22.7422 29.258C23.0109 29.4187 23.3859 29.7204 24.0607 30.2725L25.9604 27.9506C25.3645 27.4631 24.7866 26.9851 24.2818 26.6832C23.7752 26.3803 22.9296 26.001 21.9778 26.3953L23.1258 29.167ZM23.2465 30.6097C23.3333 29.7422 23.3851 29.2637 23.4615 28.96C23.5374 28.6585 23.5249 29.0017 23.1258 29.167L21.9778 26.3953C21.0259 26.7896 20.6962 27.6556 20.5522 28.2281C20.4087 28.7985 20.338 29.5451 20.2614 30.3112L23.2465 30.6097ZM23.1727 31.3483L23.2465 30.6097L20.2614 30.3112L20.1875 31.0498L23.1727 31.3483ZM22.2725 33.8536C22.7298 33.4398 22.9157 32.9371 23.0093 32.5331C23.0933 32.1708 23.1339 31.7363 23.1727 31.3483L20.1875 31.0498C20.1656 31.2691 20.1488 31.4365 20.131 31.5792C20.1131 31.7223 20.0984 31.8057 20.0869 31.8554C20.0756 31.9039 20.0753 31.8849 20.1011 31.8338C20.132 31.7729 20.1843 31.6973 20.2595 31.6293L22.2725 33.8536ZM19.69 34.5C20.08 34.5 20.5164 34.5029 20.8852 34.4554C21.2965 34.4024 21.8153 34.2674 22.2725 33.8536L20.2595 31.6293C20.3347 31.5612 20.4151 31.5167 20.4788 31.492C20.5322 31.4714 20.5511 31.4736 20.5017 31.48C20.4511 31.4865 20.3667 31.4929 20.2224 31.4964C20.0787 31.4999 19.9104 31.5 19.69 31.5V34.5ZM17.31 34.5H19.69V31.5H17.31V34.5ZM14.7275 33.8536C15.1847 34.2674 15.7035 34.4024 16.1148 34.4554C16.4836 34.5029 16.92 34.5 17.31 34.5V31.5C17.0896 31.5 16.9213 31.4999 16.7776 31.4964C16.6333 31.4929 16.5489 31.4865 16.4983 31.48C16.4489 31.4736 16.4678 31.4714 16.5212 31.492C16.5849 31.5167 16.6653 31.5612 16.7405 31.6293L14.7275 33.8536ZM13.8273 31.3483C13.8662 31.7363 13.9067 32.1708 13.9907 32.5331C14.0843 32.9371 14.2702 33.4398 14.7275 33.8536L16.7405 31.6293C16.8157 31.6973 16.868 31.7729 16.8989 31.8338C16.9247 31.8849 16.9244 31.9039 16.9131 31.8554C16.9016 31.8057 16.8869 31.7223 16.869 31.5792C16.8512 31.4365 16.8344 31.2691 16.8125 31.0498L13.8273 31.3483ZM13.7535 30.6103L13.8273 31.3483L16.8125 31.0497L16.7387 30.3118L13.7535 30.6103ZM13.8742 29.1675C13.4752 29.0023 13.4627 28.6591 13.5386 28.9606C13.6149 29.2642 13.6668 29.7428 13.7535 30.6103L16.7387 30.3118C16.6621 29.5457 16.5914 28.7991 16.4479 28.2287C16.3039 27.6562 15.9741 26.7902 15.0223 26.3959L13.8742 29.1675ZM12.9394 30.273C13.6141 29.721 13.9892 29.4193 14.2579 29.2586C14.5247 29.099 14.2733 29.3328 13.8742 29.1675L15.0223 26.3959C14.0704 26.0016 13.2249 26.3808 12.7182 26.6838C12.2134 26.9857 11.6356 27.4637 11.0397 27.9512L12.9394 30.273ZM12.3654 30.7427L12.9394 30.273L11.0397 27.9512L10.4656 28.4208L12.3654 30.7427ZM9.95731 31.8778C10.5732 31.9085 11.0602 31.6844 11.4121 31.465C11.7277 31.2682 12.0635 30.9897 12.3654 30.7427L10.4656 28.4208C10.2951 28.5604 10.1648 28.6669 10.0513 28.7552C9.93746 28.8438 9.8681 28.8923 9.82475 28.9194C9.78253 28.9457 9.79575 28.932 9.85015 28.9142C9.91502 28.8929 10.0054 28.8765 10.1067 28.8815L9.95731 31.8778ZM7.67415 30.5087C7.94992 30.7845 8.25639 31.0951 8.55082 31.3223C8.87915 31.5757 9.34138 31.8471 9.9573 31.8778L10.1068 28.8815C10.2081 28.8866 10.2964 28.9119 10.3588 28.9395C10.4112 28.9627 10.423 28.9776 10.3836 28.9472C10.3431 28.916 10.279 28.8608 10.1745 28.7614C10.0704 28.6622 9.95133 28.5433 9.79547 28.3874L7.67415 30.5087ZM5.9912 28.8258L7.67415 30.5087L9.79547 28.3874L8.11252 26.7045L5.9912 28.8258ZM4.62215 26.5426C4.65287 27.1586 4.92428 27.6208 5.17764 27.9491C5.40484 28.2436 5.71543 28.55 5.9912 28.8258L8.11252 26.7045C7.95667 26.5486 7.83774 26.4296 7.73859 26.3255C7.6391 26.221 7.58393 26.1568 7.55272 26.1164C7.52232 26.077 7.53727 26.0888 7.56041 26.1411C7.588 26.2036 7.61337 26.2919 7.61843 26.3932L4.62215 26.5426ZM5.75723 24.1346C5.51027 24.4364 5.23171 24.7723 5.03493 25.0879C4.8155 25.4398 4.59143 25.9267 4.62215 26.5426L7.61843 26.3932C7.62348 26.4945 7.60702 26.5849 7.58578 26.6498C7.56797 26.7042 7.55426 26.7174 7.58059 26.6752C7.60762 26.6318 7.65613 26.5625 7.74473 26.4487C7.83303 26.3352 7.93952 26.2049 8.0791 26.0343L5.75723 24.1346ZM6.22687 23.5606L5.75723 24.1346L8.0791 26.0343L8.54874 25.4603L6.22687 23.5606ZM7.33237 22.6258C7.16708 22.2267 7.40088 21.9753 7.24132 22.2421C7.08064 22.5108 6.77893 22.8858 6.22687 23.5606L8.54874 25.4603C9.03626 24.8644 9.51423 24.2866 9.81609 23.7818C10.1191 23.2751 10.4983 22.4296 10.104 21.4777L7.33237 22.6258ZM5.88964 22.7464C6.75712 22.8332 7.23567 22.8851 7.53929 22.9614C7.84079 23.0373 7.49765 23.0248 7.33237 22.6258L10.104 21.4777C9.70974 20.5259 8.84372 20.1961 8.27121 20.0521C7.70082 19.9086 6.95422 19.8379 6.18816 19.7613L5.88964 22.7464ZM5.15174 22.6727L5.88965 22.7464L6.18815 19.7613L5.45025 19.6875L5.15174 22.6727ZM5.30097 22.6801H5.30099V19.6801H5.30097V22.6801ZM2.64637 21.7725C3.06017 22.2298 3.56293 22.4156 3.96693 22.5093C4.32921 22.5933 4.76366 22.6338 5.15171 22.6727L5.45023 19.6875C5.23092 19.6656 5.06348 19.6488 4.92082 19.631C4.77767 19.6131 4.69433 19.5984 4.64457 19.5869C4.5961 19.5756 4.61514 19.5753 4.6662 19.6011C4.72709 19.632 4.80266 19.6843 4.87073 19.7595L2.64637 21.7725ZM2 19.19C2 19.58 1.99709 20.0164 2.04462 20.3852C2.09763 20.7965 2.23256 21.3153 2.64637 21.7725L4.87073 19.7595C4.93879 19.8347 4.98331 19.9151 5.00795 19.9788C5.02861 20.0322 5.02637 20.0511 5.02001 20.0017C5.01348 19.9511 5.00711 19.8667 5.00359 19.7224C5.00009 19.5787 5 19.4104 5 19.19H2ZM2 16.81V19.19H5V16.81H2ZM2.64637 14.2275C2.23256 14.6847 2.09763 15.2035 2.04462 15.6148C1.99709 15.9836 2 16.42 2 16.81H5C5 16.5896 5.00009 16.4213 5.00359 16.2776C5.00711 16.1333 5.01348 16.0489 5.02001 15.9983C5.02637 15.9489 5.02861 15.9678 5.00795 16.0212C4.98331 16.0849 4.93879 16.1653 4.87073 16.2405L2.64637 14.2275ZM5.15174 13.3273C4.76367 13.3661 4.32922 13.4067 3.96694 13.4907C3.56294 13.5843 3.06017 13.7702 2.64637 14.2275L4.87073 16.2405C4.80266 16.3157 4.72709 16.368 4.6662 16.3989C4.61514 16.4247 4.5961 16.4244 4.64457 16.4131C4.69433 16.4016 4.77768 16.3869 4.92083 16.369C5.06349 16.3512 5.23093 16.3344 5.45025 16.3125L5.15174 13.3273ZM5.89021 13.2535L5.15174 13.3273L5.45025 16.3125L6.18872 16.2386L5.89021 13.2535ZM7.33293 13.3742C7.49822 12.9751 7.84135 12.9627 7.53985 13.0385C7.23623 13.1149 6.75768 13.1667 5.89021 13.2535L6.18872 16.2386C6.95478 16.162 7.70138 16.0913 8.27177 15.9479C8.84429 15.8038 9.7103 15.4741 10.1046 14.5222L7.33293 13.3742ZM6.22743 12.4394C6.77949 13.1141 7.08121 13.4892 7.24189 13.7579C7.40145 14.0247 7.16765 13.7732 7.33293 13.3742L10.1046 14.5222C10.4988 13.5704 10.1196 12.7249 9.81665 12.2182C9.51479 11.7134 9.03682 11.1355 8.5493 10.5396L6.22743 12.4394ZM5.7573 11.8647L6.22743 12.4394L8.5493 10.5396L8.07917 9.96503L5.7573 11.8647ZM4.62222 9.4567C4.5915 10.0726 4.81557 10.5596 5.035 10.9115C5.23178 11.227 5.51033 11.5629 5.7573 11.8647L8.07917 9.96503C7.93959 9.79444 7.8331 9.66414 7.7448 9.55069C7.6562 9.43685 7.60769 9.36749 7.58066 9.32414C7.55433 9.28192 7.56804 9.29513 7.58585 9.34954C7.60709 9.41441 7.62355 9.50483 7.6185 9.60614L4.62222 9.4567ZM5.99127 7.17354C5.7155 7.44931 5.40491 7.75578 5.17771 8.05021C4.92435 8.37854 4.65294 8.84077 4.62222 9.4567L7.6185 9.60614C7.61344 9.70745 7.58807 9.79578 7.56048 9.85822C7.53734 9.91058 7.52239 9.92236 7.55278 9.88297C7.58399 9.84253 7.63917 9.77834 7.73865 9.67388C7.83781 9.56978 7.95674 9.45072 8.11259 9.29486L5.99127 7.17354ZM7.67422 5.49059L5.99127 7.17354L8.11259 9.29486L9.79554 7.61191L7.67422 5.49059ZM9.95738 4.12154C9.34145 4.15226 8.87922 4.42367 8.55089 4.67703C8.25646 4.90423 7.94999 5.21482 7.67422 5.49059L9.79554 7.61191C9.9514 7.45606 10.0705 7.33713 10.1746 7.23797C10.279 7.13849 10.3432 7.08331 10.3837 7.0521C10.423 7.02171 10.4113 7.03666 10.3589 7.0598C10.2965 7.08739 10.2081 7.11276 10.1068 7.11782L9.95738 4.12154ZM12.3654 5.25661C12.0636 5.00965 11.7277 4.7311 11.4122 4.53432C11.0602 4.31489 10.5733 4.09082 9.95738 4.12154L10.1068 7.11782C10.0055 7.12287 9.91509 7.10641 9.85022 7.08517C9.79581 7.06736 9.7826 7.05365 9.82482 7.07998C9.86817 7.10701 9.93753 7.15552 10.0514 7.24412C10.1648 7.33242 10.2951 7.43891 10.4657 7.57849L12.3654 5.25661ZM12.9395 5.72629L12.3654 5.25662L10.4657 7.57849L11.0398 8.04816L12.9395 5.72629ZM13.8743 6.83179C14.2733 6.6665 14.5248 6.9003 14.258 6.74075C13.9893 6.58006 13.6142 6.27835 12.9395 5.72629L11.0398 8.04816C11.6356 8.53568 12.2135 9.01365 12.7183 9.31551C13.225 9.61849 14.0705 9.9977 15.0223 9.60343L13.8743 6.83179ZM13.7536 5.38906C13.6669 6.25654 13.615 6.73509 13.5386 7.03871C13.4628 7.34021 13.4753 6.99707 13.8743 6.83179L15.0223 9.60343C15.9742 9.20916 16.3039 8.34314 16.448 7.77063C16.5915 7.20024 16.6621 6.45364 16.7387 5.68757L13.7536 5.38906ZM13.8273 4.65174L13.7536 5.38906L16.7387 5.68757L16.8125 4.95025L13.8273 4.65174ZM14.7275 2.14637C14.2702 2.56017 14.0843 3.06294 13.9907 3.46693C13.9067 3.82922 13.8662 4.26367 13.8273 4.65174L16.8125 4.95025C16.8344 4.73093 16.8512 4.56349 16.869 4.42083C16.8869 4.27768 16.9016 4.19433 16.9131 4.14457C16.9244 4.0961 16.9247 4.11514 16.8989 4.1662C16.868 4.22709 16.8157 4.30266 16.7405 4.37073L14.7275 2.14637ZM17.31 1.5C16.92 1.5 16.4836 1.49709 16.1148 1.54462C15.7035 1.59763 15.1847 1.73256 14.7275 2.14637L16.7405 4.37073C16.6653 4.43879 16.5849 4.48331 16.5212 4.50795C16.4678 4.52861 16.4489 4.52637 16.4983 4.52001C16.5489 4.51348 16.6333 4.50711 16.7776 4.50359C16.9213 4.50009 17.0896 4.5 17.31 4.5V1.5ZM19.69 1.5H17.31V4.5H19.69V1.5ZM22.2725 2.14637C21.8153 1.73256 21.2965 1.59763 20.8852 1.54462C20.5164 1.49709 20.08 1.5 19.69 1.5V4.5C19.9104 4.5 20.0787 4.50009 20.2224 4.50359C20.3667 4.50711 20.4511 4.51348 20.5017 4.52001C20.5511 4.52637 20.5322 4.52861 20.4788 4.50795C20.4151 4.48331 20.3347 4.43879 20.2595 4.37073L22.2725 2.14637ZM23 18C23 20.4853 20.9853 22.5 18.5 22.5V25.5C22.6421 25.5 26 22.1421 26 18H23ZM18.5 13.5C20.9853 13.5 23 15.5147 23 18H26C26 13.8579 22.6421 10.5 18.5 10.5V13.5ZM14 18C14 15.5147 16.0147 13.5 18.5 13.5V10.5C14.3579 10.5 11 13.8579 11 18H14ZM18.5 22.5C16.0147 22.5 14 20.4853 14 18H11C11 22.1421 14.3579 25.5 18.5 25.5V22.5Z" fill="#C4C4C4"/>
</svg>
