<svg width="21" height="21" viewBox="0 0 21 21" fill="none" xmlns="http://www.w3.org/2000/svg">
<path d="M10.1006 17.757L4.94323 20.4694C4.80106 20.5443 4.64076 20.5779 4.48049 20.5663C4.32022 20.5548 4.16638 20.4986 4.0364 20.4041C3.90642 20.3096 3.8055 20.1805 3.74505 20.0316C3.68461 19.8826 3.66707 19.7197 3.69442 19.5613L4.67979 13.8172C4.703 13.6799 4.69253 13.5389 4.64929 13.4065C4.60605 13.2741 4.53133 13.1541 4.43155 13.057L0.259529 8.98542C0.144655 8.87319 0.0634285 8.73106 0.0250195 8.5751C-0.0133895 8.41913 -0.00745145 8.25552 0.0421632 8.10275C0.0917779 7.94998 0.183093 7.81412 0.305801 7.71052C0.428509 7.60692 0.577722 7.5397 0.736597 7.51645L6.50025 6.67849C6.63836 6.65848 6.76951 6.6051 6.88235 6.52297C6.9952 6.44084 7.08634 6.33243 7.14788 6.20713L9.72911 0.980001C9.80026 0.835908 9.91028 0.714596 10.0467 0.629773C10.1832 0.544951 10.3406 0.5 10.5013 0.5C10.6619 0.5 10.8194 0.544951 10.9558 0.629773C11.0923 0.714596 11.2023 0.835908 11.2735 0.980001L13.8522 6.20713C13.9137 6.33243 14.0048 6.44084 14.1177 6.52297C14.2305 6.6051 14.3617 6.65848 14.4998 6.67849L20.2634 7.51645C20.4223 7.5397 20.5715 7.60692 20.6942 7.71052C20.8169 7.81412 20.9083 7.94998 20.9579 8.10275C21.0075 8.25552 21.0134 8.41913 20.975 8.5751C20.9366 8.73106 20.8554 8.87319 20.7405 8.98542L16.5676 13.0544C16.4681 13.1518 16.3936 13.2718 16.3506 13.4041C16.3075 13.5365 16.2971 13.6774 16.3202 13.8147L17.3056 19.5588C17.333 19.7172 17.3154 19.8801 17.255 20.029C17.1945 20.178 17.0936 20.307 16.9636 20.4015C16.8337 20.4961 16.6798 20.5523 16.5195 20.5638C16.3593 20.5754 16.199 20.5418 16.0568 20.4669L10.8994 17.7545C10.7759 17.6904 10.6388 17.6572 10.4997 17.6576C10.3606 17.658 10.2237 17.6921 10.1006 17.757Z" fill="white"/>
</svg>
