<svg width="24" height="24" viewBox="0 0 24 24" fill="none" xmlns="http://www.w3.org/2000/svg">
<path d="M15 7L17 9L21 5" stroke="white" stroke-width="2" stroke-linecap="round" stroke-linejoin="round"/>
<path fill-rule="evenodd" clip-rule="evenodd" d="M12.1708 6H5C4.44772 6 4 6.44772 4 7C4 7.55228 4.44772 8 5 8H12.1708C11.9431 7.35413 11.9431 6.64587 12.1708 6ZM14.7574 11H5C4.44772 11 4 11.4477 4 12C4 12.5523 4.44772 13 5 13H19C19.5523 13 20 12.5523 20 12C20 11.5228 19.6658 11.1237 19.2187 11.024L19.1213 11.1213C17.9497 12.2929 16.0503 12.2929 14.8787 11.1213L14.7574 11ZM5 16C4.44772 16 4 16.4477 4 17C4 17.5523 4.44772 18 5 18H19C19.5523 18 20 17.5523 20 17C20 16.4477 19.5523 16 19 16H5Z" fill="white"/>
</svg>
