<svg width="48" height="48" viewBox="0 0 48 48" fill="none" xmlns="http://www.w3.org/2000/svg">
<g clip-path="url(#clip0_6085_2209)">
<path fill-rule="evenodd" clip-rule="evenodd" d="M48 0H0V48H48V0ZM28.8619 11.0018C31.2916 11.4227 33.6154 12.1577 35.7824 13.1553C35.8012 13.1634 35.8173 13.1769 35.8266 13.1959C39.6662 18.8618 41.5625 25.2532 40.8536 32.6111C40.8509 32.6423 40.8348 32.6707 40.8094 32.6896C37.9012 34.8323 35.0842 36.1331 32.3061 36.9953C32.2618 37.0088 32.2136 36.9926 32.1868 36.9547C31.5448 36.0586 30.9619 35.1138 30.4513 34.1217C30.4218 34.0635 30.4486 33.9931 30.5089 33.9701C31.4349 33.6195 32.3154 33.1999 33.1624 32.7032C33.2294 32.6639 33.2334 32.5678 33.1718 32.5218C32.9922 32.3878 32.814 32.247 32.6438 32.1063C32.6116 32.0806 32.5687 32.0751 32.5325 32.0927C27.0339 34.6415 21.0098 34.6415 15.4455 32.0927C15.4093 32.0765 15.3664 32.0819 15.3356 32.1076C15.1654 32.2484 14.9871 32.3878 14.8089 32.5218C14.7473 32.5678 14.7526 32.6639 14.8196 32.7032C15.6666 33.1905 16.5471 33.6195 17.4718 33.9715C17.5321 33.9945 17.5603 34.0635 17.5308 34.1217C17.0309 35.1152 16.4479 36.06 15.7939 36.956C15.7658 36.9926 15.7189 37.0088 15.6746 36.9953C12.9099 36.1331 10.0929 34.8323 7.18473 32.6896C7.16061 32.6707 7.14319 32.6409 7.14051 32.6098C6.54815 26.2454 7.75564 19.8012 12.1635 13.1945C12.1741 13.1769 12.1902 13.1634 12.209 13.1553C14.3774 12.1563 16.7012 11.4214 19.1296 11.0018C19.1738 10.995 19.218 11.0153 19.2408 11.0546C19.541 11.5878 19.8841 12.2714 20.116 12.8304C22.6757 12.4379 25.2756 12.4379 27.8889 12.8304C28.1207 12.2836 28.4517 11.5878 28.7506 11.0546C28.7734 11.0139 28.8176 10.9936 28.8619 11.0018ZM15.3061 25.2966C15.3061 27.1916 16.6865 28.7346 18.3617 28.7346C20.0637 28.7346 21.4172 27.1916 21.4172 25.2966C21.4441 23.4151 20.0771 21.8586 18.3617 21.8586C16.6597 21.8586 15.3061 23.4016 15.3061 25.2966ZM26.6037 25.2966C26.6037 27.1916 27.984 28.7346 29.6592 28.7346C31.3746 28.7346 32.7148 27.1916 32.7148 25.2966C32.7416 23.4151 31.3746 21.8586 29.6592 21.8586C27.9572 21.8586 26.6037 23.4016 26.6037 25.2966Z" fill="white"/>
</g>
<defs>
<clipPath id="clip0_6085_2209">
<rect width="48" height="48" rx="24" fill="white"/>
</clipPath>
</defs>
</svg>
