<svg width="36" height="36" viewBox="0 0 36 36" fill="none" xmlns="http://www.w3.org/2000/svg">
<g clip-path="url(#clip0_4860_2888)">
<path fill-rule="evenodd" clip-rule="evenodd" d="M36 0H0V36H36V0ZM21.6464 8.25132C23.4687 8.56703 25.2115 9.11826 26.8368 9.86644C26.8509 9.87253 26.8629 9.88269 26.87 9.89689C29.7496 14.1464 31.1719 18.9399 30.6402 24.4584C30.6382 24.4817 30.6261 24.503 30.607 24.5172C28.4259 26.1242 26.3131 27.0998 24.2295 27.7464C24.1964 27.7566 24.1602 27.7444 24.1401 27.716C23.6586 27.044 23.2214 26.3354 22.8385 25.5913C22.8163 25.5476 22.8365 25.4948 22.8817 25.4776C23.5762 25.2146 24.2366 24.8999 24.8718 24.5274C24.9221 24.498 24.9251 24.4259 24.8789 24.3913C24.7442 24.2908 24.6105 24.1853 24.4828 24.0797C24.4587 24.0604 24.4265 24.0563 24.3994 24.0695C20.2754 25.9811 15.7574 25.9811 11.5841 24.0695C11.557 24.0574 11.5248 24.0614 11.5017 24.0807C11.3741 24.1863 11.2403 24.2908 11.1067 24.3913C11.0604 24.4259 11.0645 24.498 11.1147 24.5274C11.75 24.8928 12.4103 25.2146 13.1039 25.4786C13.1491 25.4958 13.1702 25.5476 13.1481 25.5913C12.7732 26.3364 12.3359 27.045 11.8454 27.717C11.8243 27.7444 11.7892 27.7566 11.756 27.7464C9.68244 27.0998 7.56966 26.1242 5.38855 24.5172C5.37046 24.503 5.35739 24.4807 5.35538 24.4574C4.91112 19.6841 5.81673 14.8509 9.12259 9.89588C9.1306 9.88269 9.14266 9.87253 9.15674 9.86644C10.783 9.11725 12.5259 8.56603 14.3472 8.25132C14.3804 8.24625 14.4135 8.26147 14.4306 8.29091C14.6558 8.69088 14.9131 9.20355 15.087 9.62279C17.0068 9.3284 18.9567 9.3284 20.9167 9.62279C21.0905 9.21267 21.3388 8.69088 21.563 8.29091C21.5801 8.26046 21.6132 8.24523 21.6464 8.25132ZM11.4796 18.9724C11.4796 20.3937 12.5148 21.5509 13.7713 21.5509C15.0477 21.5509 16.0629 20.3937 16.0629 18.9724C16.083 17.5614 15.0578 16.3939 13.7713 16.3939C12.4948 16.3939 11.4796 17.5512 11.4796 18.9724ZM19.9528 18.9724C19.9528 20.3937 20.988 21.5509 22.2444 21.5509C23.531 21.5509 24.5361 20.3937 24.5361 18.9724C24.5562 17.5614 23.531 16.3939 22.2444 16.3939C20.9679 16.3939 19.9528 17.5512 19.9528 18.9724Z" fill="#AAAAAA"/>
</g>
<defs>
<clipPath id="clip0_4860_2888">
<rect width="36" height="36" rx="12" fill="white"/>
</clipPath>
</defs>
</svg>
