<svg width="36" height="36" viewBox="0 0 36 36" fill="none" xmlns="http://www.w3.org/2000/svg">
<g clip-path="url(#clip0_4860_2882)">
<path fill-rule="evenodd" clip-rule="evenodd" d="M36 0H0V36H36V0ZM18.6451 13.2883C16.8943 14.0165 13.3952 15.5237 8.14787 17.8099C7.29578 18.1487 6.84941 18.4802 6.80878 18.8044C6.74011 19.3521 7.4261 19.5679 8.36024 19.8616C8.4873 19.9015 8.61896 19.9429 8.75393 19.9868C9.67298 20.2856 10.9093 20.6351 11.552 20.649C12.1349 20.6615 12.7856 20.4212 13.504 19.9279C18.4068 16.6184 20.9376 14.9456 21.0965 14.9096C21.2086 14.8841 21.3639 14.8521 21.4692 14.9457C21.5744 15.0392 21.5641 15.2164 21.5529 15.2639C21.485 15.5536 18.7922 18.057 17.3987 19.3526C16.9643 19.7564 16.6561 20.0429 16.5931 20.1084C16.452 20.2549 16.3082 20.3936 16.17 20.5268C15.3162 21.3499 14.6759 21.9671 16.2054 22.9751C16.9405 23.4595 17.5286 23.86 18.1154 24.2596C18.7563 24.696 19.3954 25.1313 20.2224 25.6734C20.4331 25.8115 20.6344 25.955 20.8304 26.0947C21.5761 26.6264 22.2462 27.104 23.0739 27.0279C23.5549 26.9836 24.0517 26.5313 24.304 25.1824C24.9003 21.9946 26.0725 15.0876 26.3434 12.2414C26.3671 11.992 26.3372 11.6729 26.3133 11.5328C26.2893 11.3927 26.2392 11.1931 26.0571 11.0453C25.8414 10.8703 25.5085 10.8334 25.3596 10.836C24.6826 10.848 23.6439 11.2091 18.6451 13.2883Z" fill="#AAAAAA"/>
</g>
<defs>
<clipPath id="clip0_4860_2882">
<rect width="36" height="36" rx="12" fill="white"/>
</clipPath>
</defs>
</svg>
