<svg width="48" height="48" viewBox="0 0 48 48" fill="none" xmlns="http://www.w3.org/2000/svg">
<g clip-path="url(#clip0_6085_2198)">
<path fill-rule="evenodd" clip-rule="evenodd" d="M48 0H0V48H48V0ZM24.8601 17.7178C22.5257 18.6887 17.8603 20.6983 10.8638 23.7465C9.72769 24.1983 9.13254 24.6403 9.07836 25.0725C8.9868 25.8029 9.90145 26.0905 11.147 26.4821C11.3164 26.5354 11.4919 26.5906 11.6719 26.6491C12.8973 27.0474 14.5457 27.5135 15.4026 27.532C16.1799 27.5488 17.0475 27.2283 18.0053 26.5706C24.5423 22.1579 27.9168 19.9275 28.1286 19.8794C28.2781 19.8455 28.4852 19.8029 28.6256 19.9276C28.7659 20.0523 28.7521 20.2885 28.7372 20.3519C28.6466 20.7382 25.0563 24.0761 23.1983 25.8035C22.619 26.342 22.2082 26.7239 22.1242 26.8112C21.936 27.0066 21.7443 27.1914 21.56 27.3691C20.4216 28.4666 19.5678 29.2895 21.6073 30.6335C22.5873 31.2793 23.3715 31.8134 24.1539 32.3462C25.0083 32.928 25.8606 33.5084 26.9633 34.2312C27.2442 34.4154 27.5125 34.6067 27.7738 34.793C28.7682 35.5018 29.6615 36.1387 30.7652 36.0372C31.4065 35.9782 32.069 35.3751 32.4054 33.5766C33.2005 29.3262 34.7633 20.1168 35.1245 16.3219C35.1561 15.9894 35.1163 15.5638 35.0843 15.3771C35.0524 15.1903 34.9856 14.9241 34.7428 14.7271C34.4552 14.4938 34.0113 14.4446 33.8128 14.4481C32.9101 14.464 31.5251 14.9455 24.8601 17.7178Z" fill="white"/>
</g>
<defs>
<clipPath id="clip0_6085_2198">
<rect width="48" height="48" rx="24" fill="white"/>
</clipPath>
</defs>
</svg>
