<svg width="36" height="36" viewBox="0 0 36 36" fill="none" xmlns="http://www.w3.org/2000/svg">
<g clip-path="url(#clip0_4860_2880)">
<path fill-rule="evenodd" clip-rule="evenodd" d="M36 0H0V36H36V0ZM19.2002 5.25H23.4916C23.4916 8.50217 26.0224 11.163 29.25 11.2739V15.6348C27.1593 15.5978 25.1788 14.8957 23.5649 13.713V22.6195C23.5649 27.0913 19.9705 30.75 15.5325 30.75C11.0944 30.75 7.5 27.1283 7.5 22.6195C7.5 18.1478 11.0211 14.563 15.3858 14.4891V18.85C13.4051 18.9239 11.7913 20.587 11.7913 22.6195C11.7913 24.6891 13.4418 26.3891 15.4958 26.3891C17.5498 26.3891 19.2002 24.6891 19.2002 22.6195V5.25Z" fill="#AAAAAA"/>
</g>
<defs>
<clipPath id="clip0_4860_2880">
<rect width="36" height="36" rx="12" fill="white"/>
</clipPath>
</defs>
</svg>
