<svg width="48" height="48" viewBox="0 0 48 48" fill="none" xmlns="http://www.w3.org/2000/svg">
<g clip-path="url(#clip0_6085_2189)">
<path fill-rule="evenodd" clip-rule="evenodd" d="M48 0H0V48H48V0ZM25.6003 7H31.3221C31.3221 11.3362 34.6965 14.8841 39 15.0319V20.8464C36.2124 20.7971 33.5717 19.8609 31.4199 18.284V30.1594C31.4199 36.1218 26.6273 41 20.71 41C14.7926 41 10 36.1711 10 30.1594C10 24.1971 14.6948 19.4174 20.5144 19.3189V25.1333C17.8735 25.2318 15.7218 27.4493 15.7218 30.1594C15.7218 32.9189 17.9224 35.1855 20.6611 35.1855C23.3997 35.1855 25.6003 32.9189 25.6003 30.1594V7Z" fill="white"/>
</g>
<defs>
<clipPath id="clip0_6085_2189">
<rect width="48" height="48" rx="24" fill="white"/>
</clipPath>
</defs>
</svg>
