<svg width="48" height="48" viewBox="0 0 48 48" fill="none" xmlns="http://www.w3.org/2000/svg">
<g clip-path="url(#clip0_6085_2213)">
<path fill-rule="evenodd" clip-rule="evenodd" d="M48 0H0V48H48V0ZM38.4062 14.6434C39.3688 15.5904 39.6813 17.747 39.6813 17.747C39.6813 17.747 40 20.2824 40 22.8117V25.1822C40 27.7176 39.6813 30.2469 39.6813 30.2469C39.6813 30.2469 39.3688 32.4035 38.4062 33.3505C37.3081 34.4735 36.0931 34.5895 35.4063 34.6552C35.3309 34.6624 35.2618 34.6689 35.2 34.6762C30.725 34.9878 24 35 24 35C24 35 15.6813 34.9267 13.1188 34.6884C12.9941 34.6649 12.8423 34.6468 12.6702 34.6263C11.8581 34.5295 10.5931 34.3788 9.5875 33.3505C8.63125 32.4035 8.31875 30.2469 8.31875 30.2469C8.31875 30.2469 8 27.7115 8 25.1822V22.8117C8 20.2824 8.325 17.747 8.325 17.747C8.325 17.747 8.63125 15.5904 9.59375 14.6434C10.6919 13.5204 11.9069 13.4043 12.5937 13.3387C12.6691 13.3315 12.7382 13.3249 12.8 13.3177C17.275 13 23.9937 13 23.9937 13H24.0063C24.0063 13 30.725 13 35.2 13.3177C35.2618 13.3249 35.3309 13.3315 35.4063 13.3387C36.0931 13.4043 37.3081 13.5204 38.4062 14.6434ZM20.6938 19.2683V28.0597L29.3375 23.6793L20.6938 19.2683Z" fill="white"/>
</g>
<defs>
<clipPath id="clip0_6085_2213">
<rect width="48" height="48" rx="24" fill="white"/>
</clipPath>
</defs>
</svg>
