<svg width="36" height="36" viewBox="0 0 36 36" fill="none" xmlns="http://www.w3.org/2000/svg">
<g clip-path="url(#clip0_4860_2877)">
<path fill-rule="evenodd" clip-rule="evenodd" d="M36 0H0V36H36V0ZM28.8047 10.9826C29.5266 11.6928 29.7609 13.3103 29.7609 13.3103C29.7609 13.3103 30 15.2118 30 17.1088V18.8866C30 20.7882 29.7609 22.6852 29.7609 22.6852C29.7609 22.6852 29.5266 24.3026 28.8047 25.0128C27.981 25.8551 27.0699 25.9422 26.5547 25.9914C26.4981 25.9968 26.4464 26.0017 26.4 26.0072C23.0438 26.2408 18 26.25 18 26.25C18 26.25 11.7609 26.195 9.83906 26.0163C9.74558 25.9987 9.63174 25.9851 9.50262 25.9697C8.89361 25.8971 7.94479 25.7841 7.19063 25.0128C6.47344 24.3026 6.23906 22.6852 6.23906 22.6852C6.23906 22.6852 6 20.7836 6 18.8866V17.1088C6 15.2118 6.24375 13.3103 6.24375 13.3103C6.24375 13.3103 6.47344 11.6928 7.19531 10.9826C8.01896 10.1403 8.93015 10.0533 9.44531 10.0041C9.50186 9.99865 9.55363 9.99371 9.6 9.98827C12.9563 9.75 17.9953 9.75 17.9953 9.75H18.0047C18.0047 9.75 23.0438 9.75 26.4 9.98827C26.4464 9.99371 26.4981 9.99865 26.5547 10.0041C27.0699 10.0533 27.981 10.1403 28.8047 10.9826ZM15.5203 14.4512V21.0448L22.0031 17.7594L15.5203 14.4512Z" fill="#AAAAAA"/>
</g>
<defs>
<clipPath id="clip0_4860_2877">
<rect width="36" height="36" rx="12" fill="white"/>
</clipPath>
</defs>
</svg>
