<svg width="206" height="30" viewBox="0 0 206 30" fill="none" xmlns="http://www.w3.org/2000/svg">
<path d="M26.9451 8.60979H28.086V11.0938C28.5385 10.1138 29.1396 9.37146 29.8895 8.86665C30.6166 8.36641 31.4759 8.10138 32.3542 8.10646C33.0441 8.12142 33.7216 8.2945 34.3363 8.61276L33.4996 10.9616C33.3449 11.3954 33.0618 11.7701 32.6892 12.0343C32.3166 12.2985 31.8726 12.4393 31.4181 12.4374H31.4079C30.657 12.4374 30.0231 12.9086 29.5063 13.8509C28.9895 14.7932 28.7306 16.6417 28.7296 19.3964L28.7471 20.3571V23.4201C28.7471 24.7228 28.2374 25.9723 27.33 26.8936C26.4226 27.8149 25.1919 28.3327 23.9084 28.3331V11.6921C23.9084 10.8746 24.2283 10.0906 24.7978 9.51258C25.3673 8.93453 26.1397 8.60979 26.9451 8.60979Z" fill="#484848"/>
<path d="M55.2798 19.9011H40.55C40.7753 21.3027 41.3794 22.4173 42.3624 23.2448C43.3453 24.0723 44.5979 24.4865 46.1201 24.4875C47.0813 24.4971 48.0331 24.2944 48.9096 23.8936C49.6423 23.5437 50.4415 23.3606 51.2513 23.357C52.0611 23.3534 52.8619 23.5294 53.5976 23.8728L54.9228 24.5053C53.8989 25.9802 52.6732 27.069 51.2455 27.7717C49.8179 28.4745 48.1216 28.8314 46.1567 28.8422C43.1083 28.8422 40.6261 27.8668 38.7099 25.9158C36.7937 23.9649 35.8356 21.521 35.8356 18.5842C35.8356 15.5761 36.7908 13.0783 38.7011 11.0907C40.6115 9.1031 43.0074 8.10932 45.889 8.10932C48.9471 8.10932 51.4337 9.1031 53.3489 11.0907C55.2642 13.0783 56.2227 15.7013 56.2247 18.9598C56.2193 19.2108 56.1175 19.4498 55.941 19.6257C55.7644 19.8016 55.5271 19.9004 55.2798 19.9011ZM51.3304 16.0052C51.0175 14.9164 50.3463 13.9694 49.4288 13.3222C48.4671 12.6266 47.3111 12.2623 46.1304 12.2829C44.8443 12.2591 43.5864 12.6672 42.5525 13.444C41.9089 13.927 41.3126 14.7788 40.7636 15.9992L51.3304 16.0052Z" fill="#484848"/>
<path d="M74.4928 8.60971C75.7858 8.60971 77.0259 9.13109 77.9402 10.0591C78.8545 10.9872 79.3681 12.2459 79.3681 13.5584V28.33H74.4928V26.2514C73.542 27.169 72.5879 27.8302 71.6302 28.235C70.6435 28.6461 69.5856 28.8525 68.519 28.8423C66.0109 28.8423 63.8407 27.8525 62.0084 25.8728C60.176 23.8931 59.2609 21.4374 59.2628 18.5055C59.2628 15.4618 60.1487 12.9669 61.9206 11.0209C63.6925 9.07493 65.8441 8.10242 68.3757 8.10341C69.503 8.0954 70.6199 8.32335 71.6566 8.77303C72.7221 9.24967 73.6856 9.93308 74.4928 10.7849V8.60971ZM69.3732 12.6705C67.8666 12.6705 66.615 13.2109 65.6184 14.2918C64.6218 15.3727 64.1235 16.7585 64.1235 18.4491C64.1235 20.1526 64.6306 21.5542 65.6447 22.6539C66.117 23.1843 66.6956 23.606 67.3417 23.8905C67.9879 24.175 68.6866 24.3158 69.3908 24.3034C70.9218 24.3034 72.1895 23.7625 73.1939 22.6806C74.1983 21.5987 74.7025 20.1823 74.7064 18.4313C74.7064 16.7149 74.2022 15.3252 73.1939 14.2621C72.1856 13.199 70.9106 12.6685 69.3689 12.6705H69.3732Z" fill="#484848"/>
<path d="M89.1347 8.60962V10.8768C89.9081 9.99472 90.8548 9.28666 91.9139 8.79818C92.9643 8.33281 94.1 8.09852 95.246 8.11074C96.4052 8.09146 97.5465 8.40267 98.5401 9.00901C99.5519 9.65282 100.368 10.5687 100.898 11.6548C101.617 10.5466 102.596 9.63729 103.747 9.00901C104.885 8.40216 106.153 8.09098 107.438 8.10332C108.821 8.10332 110.036 8.42947 111.083 9.08176C112.08 9.67448 112.87 10.5676 113.343 11.637C113.802 12.6882 114.032 14.3976 114.032 16.7653V25.2283C114.032 25.6359 113.953 26.0396 113.799 26.4162C113.646 26.7928 113.42 27.1349 113.136 27.423C112.852 27.7111 112.515 27.9395 112.144 28.0951C111.773 28.2507 111.375 28.3305 110.973 28.3299H109.116V18.3243C109.116 16.0902 108.842 14.5768 108.294 13.7839C107.746 12.9911 106.925 12.5952 105.83 12.5961C105.026 12.5868 104.24 12.8409 103.589 13.3207C102.912 13.8265 102.399 14.5267 102.116 15.331C101.795 16.1833 101.634 17.5517 101.634 19.4363V25.2268C101.634 25.6341 101.555 26.0374 101.402 26.4137C101.248 26.79 101.023 27.1319 100.74 27.4199C100.456 27.708 100.119 27.9364 99.7487 28.0923C99.3781 28.2482 98.9808 28.3285 98.5796 28.3285H96.7234V18.7771C96.7234 17.0133 96.5952 15.7359 96.3387 14.945C96.0822 14.1541 95.6975 13.5647 95.1846 13.1767C94.6433 12.7816 93.989 12.5781 93.3225 12.5976C92.527 12.5929 91.7515 12.8503 91.1123 13.3311C90.4271 13.8522 89.9103 14.5686 89.6277 15.3889C89.299 16.2709 89.1347 17.6601 89.1347 19.5566V25.2283C89.1349 25.6356 89.056 26.0389 88.9026 26.4152C88.7492 26.7915 88.5243 27.1334 88.2407 27.4214C87.9571 27.7094 87.6203 27.9379 87.2496 28.0938C86.879 28.2497 86.4817 28.3299 86.0805 28.3299H84.2609V13.5583C84.2607 12.9085 84.3866 12.265 84.6315 11.6646C84.8763 11.0642 85.2353 10.5187 85.6879 10.0591C86.1405 9.59959 86.6778 9.23505 87.2692 8.98634C87.8607 8.73763 88.4946 8.60962 89.1347 8.60962Z" fill="#484848"/>
<path d="M171.753 8.60971C173.046 8.60971 174.286 9.13109 175.2 10.0591C176.115 10.9872 176.628 12.2459 176.628 13.5584V28.33H171.753V26.2514C170.802 27.169 169.848 27.8302 168.89 28.235C167.903 28.6462 166.845 28.8527 165.778 28.8423C163.269 28.8423 161.099 27.8525 159.269 25.8728C157.438 23.8931 156.522 21.4374 156.522 18.5055C156.522 15.4618 157.407 12.9669 159.179 11.0209C160.951 9.07493 163.103 8.10242 165.636 8.10341C166.763 8.0954 167.88 8.32335 168.917 8.77303C169.982 9.2504 170.945 9.93372 171.753 10.7849V8.60971ZM166.633 12.6705C165.127 12.6705 163.875 13.2109 162.879 14.2918C161.882 15.3727 161.384 16.7585 161.384 18.4491C161.384 20.1526 161.891 21.5542 162.905 22.6539C163.377 23.1844 163.956 23.6061 164.602 23.8906C165.248 24.1752 165.947 24.3159 166.651 24.3034C168.181 24.3034 169.449 23.7625 170.454 22.6806C171.459 21.5987 171.965 20.1833 171.969 18.4342C171.969 16.7179 171.465 15.3282 170.456 14.2651C169.446 13.202 168.171 12.6705 166.629 12.6705H166.633Z" fill="#484848"/>
<path d="M193.448 11.3654L193.35 11.4633C191.937 12.8991 189.856 13.3356 187.95 12.7224C187.673 12.6282 187.383 12.5781 187.091 12.5739C186.543 12.5739 186.116 12.6912 185.805 12.9273C185.663 13.0239 185.546 13.1546 185.465 13.3079C185.384 13.4612 185.342 13.6324 185.342 13.8063C185.344 14.0795 185.449 14.3416 185.634 14.5397C185.829 14.7644 186.317 15.0698 187.097 15.4558L188.883 16.3615C190.763 17.3048 192.055 18.2654 192.758 19.2434C193.57 20.433 193.931 21.8803 193.776 23.3189C193.62 24.7575 192.957 26.0905 191.909 27.0724C190.642 28.2454 188.943 28.8314 186.812 28.8304C183.978 28.8304 181.716 27.7069 180.026 25.46L180.956 24.4311C181.463 23.878 182.137 23.5126 182.872 23.3929C183.607 23.2732 184.359 23.4061 185.011 23.7704L185.035 23.7837C185.803 24.1995 186.486 24.4078 187.082 24.4088C187.725 24.4088 188.243 24.2514 188.636 23.9367C189.028 23.6234 189.221 23.2611 189.221 22.8498C189.221 22.0887 188.513 21.3463 187.096 20.6227L185.453 19.7883C182.309 18.1818 180.738 16.17 180.739 13.7528C180.739 12.1938 181.331 10.8615 182.516 9.75589C183.701 8.65026 185.215 8.09793 187.059 8.09892C188.303 8.0924 189.531 8.38498 190.642 8.95272C191.754 9.52047 192.717 10.3472 193.453 11.3654H193.448Z" fill="#484848"/>
<path d="M203.108 1.34193V8.61716H206V9.94007C206 10.3257 205.925 10.7075 205.78 11.0638C205.635 11.4201 205.422 11.7439 205.153 12.0166C204.885 12.2894 204.566 12.5057 204.215 12.6533C203.864 12.8009 203.488 12.8769 203.108 12.8769V23.3889C203.108 24.7013 202.594 25.96 201.68 26.8881C200.766 27.8161 199.526 28.3375 198.233 28.3375V12.8695H195.733V11.1472C195.733 10.4742 195.996 9.82879 196.465 9.35293C196.934 8.87707 197.57 8.60974 198.233 8.60974V6.29057C198.233 4.97811 198.746 3.7194 199.661 2.79135C200.575 1.8633 201.815 1.34193 203.108 1.34193Z" fill="#484848"/>
<path d="M19.017 7.79463C17.8137 5.63284 16.2856 4.07139 14.4328 3.11027C12.58 2.14914 9.7433 1.66957 5.92264 1.67155C5.14494 1.67136 4.37482 1.82667 3.65626 2.12863C2.93771 2.43058 2.28479 2.87326 1.73481 3.43139C1.18482 3.98951 0.74854 4.65214 0.450883 5.38143C0.153226 6.11072 2.28645e-05 6.89239 2.28882e-05 7.68179V28.3301L3.10541 25.2344L4.96308 23.3829V6.56229H6.65986C9.76671 6.56229 12.0222 7.26408 13.4265 8.66766C14.9867 10.2276 15.7668 12.4231 15.7668 15.254C15.7668 17.0921 15.4397 18.6402 14.7854 19.8982C14.131 21.1563 13.289 22.0516 12.2592 22.5841C11.2294 23.1157 9.57168 23.3819 7.28591 23.3829H7.05187L4.96455 25.4616V28.3286H6.01333C9.41468 28.3286 11.8038 28.1113 13.1807 27.6768C14.624 27.203 15.9397 26.3965 17.0248 25.3205C18.2504 24.1165 19.1993 22.6529 19.804 21.0341C20.4909 19.228 20.8329 17.3057 20.8118 15.3698C20.8167 12.4834 20.2184 9.95839 19.017 7.79463Z" fill="#484848"/>
<path d="M148.389 2.39158C146.426 1.47302 144.291 0.997849 142.13 0.998888C138.621 0.998528 135.229 2.2785 132.572 4.60532L132.587 4.62017L134.414 6.51025H138.717C139.782 6.10451 140.913 5.90313 142.051 5.91635C143.755 5.91166 145.431 6.35352 146.917 7.19917C147.97 7.79817 149.184 8.03985 150.382 7.88894C151.58 7.73802 152.699 7.20241 153.576 6.36029C152.153 4.66849 150.383 3.31378 148.389 2.39158ZM152.762 23.1394C152.087 22.4219 151.185 21.9685 150.214 21.8585C149.243 21.7486 148.265 21.9891 147.451 22.538C145.888 23.6179 144.03 24.173 142.14 24.1252C140.519 24.1456 138.921 23.7395 137.501 22.9463C136.145 22.1943 135.026 21.0688 134.272 19.6992C133.511 18.3204 133.131 16.7416 133.131 14.9629C133.131 12.7674 133.765 10.8714 135.032 9.27484L134.871 9.09518L134.411 8.61858L134.188 8.38845L133.403 7.57778L132.587 6.73296L131.523 5.63425C130.91 6.3158 130.37 7.06248 129.914 7.86136C128.726 9.93208 128.131 12.2963 128.131 14.954C128.131 19.0627 129.432 22.4311 132.032 25.0591C134.633 27.6871 137.975 29.0011 142.058 29.0011C144.273 29.0011 146.243 28.6294 147.969 27.8861C149.47 27.2387 151.05 26.1474 152.711 24.6122C152.811 24.52 152.893 24.4083 152.95 24.2837C153.007 24.1591 153.039 24.0241 153.043 23.8868C153.048 23.7494 153.026 23.6125 152.977 23.4842C152.929 23.3558 152.856 23.2385 152.762 23.1394Z" fill="#484848"/>
</svg>
