<svg width="246" height="50" viewBox="0 0 246 50" fill="none" xmlns="http://www.w3.org/2000/svg">
<g filter="url(#filter0_b_4534_4216)">
<rect width="246" height="50" rx="15" fill="white"/>
<path d="M46.9451 18.6098H48.086V21.0938C48.5385 20.1138 49.1396 19.3715 49.8895 18.8666C50.6166 18.3664 51.4759 18.1014 52.3542 18.1065C53.0441 18.1214 53.7216 18.2945 54.3363 18.6128L53.4996 20.9616C53.3449 21.3954 53.0618 21.7701 52.6892 22.0343C52.3166 22.2985 51.8726 22.4393 51.4181 22.4374H51.4079C50.657 22.4374 50.0231 22.9086 49.5063 23.8509C48.9895 24.7932 48.7306 26.6417 48.7296 29.3964L48.7471 30.3571V33.4201C48.7471 34.7228 48.2374 35.9723 47.33 36.8936C46.4226 37.8149 45.1919 38.3327 43.9084 38.3331V21.6921C43.9084 20.8746 44.2283 20.0906 44.7978 19.5126C45.3673 18.9345 46.1397 18.6098 46.9451 18.6098Z" fill="#484848"/>
<path d="M75.2798 29.9011H60.55C60.7753 31.3027 61.3794 32.4173 62.3624 33.2448C63.3453 34.0723 64.5979 34.4865 66.1201 34.4875C67.0813 34.4971 68.0331 34.2944 68.9096 33.8936C69.6423 33.5437 70.4415 33.3606 71.2513 33.357C72.0611 33.3534 72.8619 33.5294 73.5976 33.8728L74.9228 34.5053C73.8989 35.9802 72.6732 37.069 71.2455 37.7717C69.8179 38.4745 68.1216 38.8314 66.1567 38.8422C63.1083 38.8422 60.6261 37.8668 58.7099 35.9158C56.7937 33.9649 55.8356 31.521 55.8356 28.5842C55.8356 25.5761 56.7908 23.0783 58.7011 21.0907C60.6115 19.1031 63.0074 18.1093 65.889 18.1093C68.9471 18.1093 71.4337 19.1031 73.3489 21.0907C75.2642 23.0783 76.2227 25.7013 76.2247 28.9598C76.2193 29.2108 76.1175 29.4498 75.941 29.6257C75.7644 29.8016 75.5271 29.9004 75.2798 29.9011ZM71.3304 26.0052C71.0175 24.9164 70.3463 23.9694 69.4288 23.3222C68.4671 22.6266 67.3111 22.2623 66.1304 22.2829C64.8443 22.2591 63.5864 22.6672 62.5525 23.444C61.9089 23.927 61.3126 24.7788 60.7636 25.9992L71.3304 26.0052Z" fill="#484848"/>
<path d="M94.4928 18.6097C95.7858 18.6097 97.0259 19.1311 97.9402 20.0591C98.8545 20.9872 99.3681 22.2459 99.3681 23.5584V38.33H94.4928V36.2514C93.542 37.169 92.5879 37.8302 91.6302 38.235C90.6435 38.6461 89.5856 38.8525 88.519 38.8423C86.0109 38.8423 83.8407 37.8525 82.0084 35.8728C80.176 33.8931 79.2609 31.4374 79.2628 28.5055C79.2628 25.4618 80.1487 22.9669 81.9206 21.0209C83.6925 19.0749 85.8441 18.1024 88.3757 18.1034C89.503 18.0954 90.6199 18.3234 91.6566 18.773C92.7221 19.2497 93.6856 19.9331 94.4928 20.7849V18.6097ZM89.3732 22.6705C87.8666 22.6705 86.615 23.2109 85.6184 24.2918C84.6218 25.3727 84.1235 26.7585 84.1235 28.4491C84.1235 30.1526 84.6306 31.5542 85.6447 32.6539C86.117 33.1843 86.6956 33.606 87.3417 33.8905C87.9879 34.175 88.6866 34.3158 89.3908 34.3034C90.9218 34.3034 92.1895 33.7625 93.1939 32.6806C94.1983 31.5987 94.7025 30.1823 94.7064 28.4313C94.7064 26.7149 94.2022 25.3252 93.1939 24.2621C92.1856 23.199 90.9106 22.6685 89.3689 22.6705H89.3732Z" fill="#484848"/>
<path d="M109.135 18.6096V20.8768C109.908 19.9947 110.855 19.2867 111.914 18.7982C112.964 18.3328 114.1 18.0985 115.246 18.1107C116.405 18.0915 117.546 18.4027 118.54 19.009C119.552 19.6528 120.368 20.5687 120.898 21.6548C121.617 20.5466 122.596 19.6373 123.747 19.009C124.885 18.4022 126.153 18.091 127.438 18.1033C128.821 18.1033 130.036 18.4295 131.083 19.0818C132.08 19.6745 132.87 20.5676 133.343 21.637C133.802 22.6882 134.032 24.3976 134.032 26.7653V35.2283C134.032 35.6359 133.953 36.0396 133.799 36.4162C133.646 36.7928 133.42 37.1349 133.136 37.423C132.852 37.7111 132.515 37.9395 132.144 38.0951C131.773 38.2507 131.375 38.3305 130.973 38.3299H129.116V28.3243C129.116 26.0902 128.842 24.5768 128.294 23.7839C127.746 22.9911 126.925 22.5952 125.83 22.5961C125.026 22.5868 124.24 22.8409 123.589 23.3207C122.912 23.8265 122.399 24.5267 122.116 25.331C121.795 26.1833 121.634 27.5517 121.634 29.4363V35.2268C121.634 35.6341 121.555 36.0374 121.402 36.4137C121.248 36.79 121.023 37.1319 120.74 37.4199C120.456 37.708 120.119 37.9364 119.749 38.0923C119.378 38.2482 118.981 38.3285 118.58 38.3285H116.723V28.7771C116.723 27.0133 116.595 25.7359 116.339 24.945C116.082 24.1541 115.698 23.5647 115.185 23.1767C114.643 22.7816 113.989 22.5781 113.323 22.5976C112.527 22.5929 111.751 22.8503 111.112 23.3311C110.427 23.8522 109.91 24.5686 109.628 25.3889C109.299 26.2709 109.135 27.6601 109.135 29.5566V35.2283C109.135 35.6356 109.056 36.0389 108.903 36.4152C108.749 36.7915 108.524 37.1334 108.241 37.4214C107.957 37.7094 107.62 37.9379 107.25 38.0938C106.879 38.2497 106.482 38.3299 106.081 38.3299H104.261V23.5583C104.261 22.9085 104.387 22.265 104.631 21.6646C104.876 21.0642 105.235 20.5187 105.688 20.0591C106.14 19.5996 106.678 19.235 107.269 18.9863C107.861 18.7376 108.495 18.6096 109.135 18.6096Z" fill="#484848"/>
<path d="M191.753 18.6097C193.046 18.6097 194.286 19.1311 195.2 20.0591C196.115 20.9872 196.628 22.2459 196.628 23.5584V38.33H191.753V36.2514C190.802 37.169 189.848 37.8302 188.89 38.235C187.903 38.6462 186.845 38.8527 185.778 38.8423C183.269 38.8423 181.099 37.8525 179.269 35.8728C177.438 33.8931 176.522 31.4374 176.522 28.5055C176.522 25.4618 177.407 22.9669 179.179 21.0209C180.951 19.0749 183.103 18.1024 185.636 18.1034C186.763 18.0954 187.88 18.3234 188.917 18.773C189.982 19.2504 190.945 19.9337 191.753 20.7849V18.6097ZM186.633 22.6705C185.127 22.6705 183.875 23.2109 182.879 24.2918C181.882 25.3727 181.384 26.7585 181.384 28.4491C181.384 30.1526 181.891 31.5542 182.905 32.6539C183.377 33.1844 183.956 33.6061 184.602 33.8906C185.248 34.1752 185.947 34.3159 186.651 34.3034C188.181 34.3034 189.449 33.7625 190.454 32.6806C191.459 31.5987 191.965 30.1833 191.969 28.4342C191.969 26.7179 191.465 25.3282 190.456 24.2651C189.446 23.202 188.171 22.6705 186.629 22.6705H186.633Z" fill="#484848"/>
<path d="M213.448 21.3654L213.35 21.4633C211.937 22.8991 209.856 23.3356 207.95 22.7224C207.673 22.6282 207.383 22.5781 207.091 22.5739C206.543 22.5739 206.116 22.6912 205.805 22.9273C205.663 23.0239 205.546 23.1546 205.465 23.3079C205.384 23.4612 205.342 23.6324 205.342 23.8063C205.344 24.0795 205.449 24.3416 205.634 24.5397C205.829 24.7644 206.317 25.0698 207.097 25.4558L208.883 26.3615C210.763 27.3048 212.055 28.2654 212.758 29.2434C213.57 30.433 213.931 31.8803 213.776 33.3189C213.62 34.7575 212.957 36.0905 211.909 37.0724C210.642 38.2454 208.943 38.8314 206.812 38.8304C203.978 38.8304 201.716 37.7069 200.026 35.46L200.956 34.4311C201.463 33.878 202.137 33.5126 202.872 33.3929C203.607 33.2732 204.359 33.4061 205.011 33.7704L205.035 33.7837C205.803 34.1995 206.486 34.4078 207.082 34.4088C207.725 34.4088 208.243 34.2514 208.636 33.9367C209.028 33.6234 209.221 33.2611 209.221 32.8498C209.221 32.0887 208.513 31.3463 207.096 30.6227L205.453 29.7883C202.309 28.1818 200.738 26.17 200.739 23.7528C200.739 22.1938 201.331 20.8615 202.516 19.7559C203.701 18.6503 205.215 18.0979 207.059 18.0989C208.303 18.0924 209.531 18.385 210.642 18.9527C211.754 19.5205 212.717 20.3472 213.453 21.3654H213.448Z" fill="#484848"/>
<path d="M223.108 11.3419V18.6172H226V19.9401C226 20.3257 225.925 20.7075 225.78 21.0638C225.635 21.4201 225.422 21.7439 225.153 22.0166C224.885 22.2894 224.566 22.5057 224.215 22.6533C223.864 22.8009 223.488 22.8769 223.108 22.8769V33.3889C223.108 34.7013 222.594 35.96 221.68 36.8881C220.766 37.8161 219.526 38.3375 218.233 38.3375V22.8695H215.733V21.1472C215.733 20.4742 215.996 19.8288 216.465 19.3529C216.934 18.8771 217.57 18.6097 218.233 18.6097V16.2906C218.233 14.9781 218.746 13.7194 219.661 12.7914C220.575 11.8633 221.815 11.3419 223.108 11.3419Z" fill="#484848"/>
<path d="M39.017 17.7946C37.8137 15.6328 36.2856 14.0714 34.4328 13.1103C32.58 12.1491 29.7433 11.6696 25.9226 11.6716C25.1449 11.6714 24.3748 11.8267 23.6563 12.1286C22.9377 12.4306 22.2848 12.8733 21.7348 13.4314C21.1848 13.9895 20.7485 14.6521 20.4509 15.3814C20.1532 16.1107 20 16.8924 20 17.6818V38.3301L23.1054 35.2344L24.9631 33.3829V16.5623H26.6599C29.7667 16.5623 32.0222 17.2641 33.4265 18.6677C34.9867 20.2276 35.7668 22.4231 35.7668 25.254C35.7668 27.0921 35.4397 28.6402 34.7854 29.8982C34.131 31.1563 33.289 32.0516 32.2592 32.5841C31.2294 33.1157 29.5717 33.3819 27.2859 33.3829H27.0519L24.9645 35.4616V38.3286H26.0133C29.4147 38.3286 31.8038 38.1113 33.1807 37.6768C34.624 37.203 35.9397 36.3965 37.0248 35.3205C38.2504 34.1165 39.1993 32.6529 39.804 31.0341C40.4909 29.228 40.8329 27.3057 40.8118 25.3698C40.8167 22.4834 40.2184 19.9584 39.017 17.7946Z" fill="#484848"/>
<path d="M168.389 12.3916C166.426 11.473 164.291 10.9978 162.13 10.9989C158.621 10.9985 155.229 12.2785 152.572 14.6053L152.587 14.6202L154.414 16.5102H158.717C159.782 16.1045 160.913 15.9031 162.051 15.9164C163.755 15.9117 165.431 16.3535 166.917 17.1992C167.97 17.7982 169.184 18.0399 170.382 17.8889C171.58 17.738 172.699 17.2024 173.576 16.3603C172.153 14.6685 170.383 13.3138 168.389 12.3916ZM172.762 33.1394C172.087 32.4219 171.185 31.9685 170.214 31.8585C169.243 31.7486 168.265 31.9891 167.451 32.538C165.888 33.6179 164.03 34.173 162.14 34.1252C160.519 34.1456 158.921 33.7395 157.501 32.9463C156.145 32.1943 155.026 31.0688 154.272 29.6992C153.511 28.3204 153.131 26.7416 153.131 24.9629C153.131 22.7674 153.765 20.8714 155.032 19.2748L154.871 19.0952L154.411 18.6186L154.188 18.3884L153.403 17.5778L152.587 16.733L151.523 15.6343C150.91 16.3158 150.37 17.0625 149.914 17.8614C148.726 19.9321 148.131 22.2963 148.131 24.954C148.131 29.0627 149.432 32.4311 152.032 35.0591C154.633 37.6871 157.975 39.0011 162.058 39.0011C164.273 39.0011 166.243 38.6294 167.969 37.8861C169.47 37.2387 171.05 36.1474 172.711 34.6122C172.811 34.52 172.893 34.4083 172.95 34.2837C173.007 34.1591 173.039 34.0241 173.043 33.8868C173.048 33.7494 173.026 33.6125 172.977 33.4842C172.929 33.3558 172.856 33.2385 172.762 33.1394Z" fill="#484848"/>
</g>
<defs>
<filter id="filter0_b_4534_4216" x="-30" y="-30" width="306" height="110" filterUnits="userSpaceOnUse" color-interpolation-filters="sRGB">
<feFlood flood-opacity="0" result="BackgroundImageFix"/>
<feGaussianBlur in="BackgroundImageFix" stdDeviation="15"/>
<feComposite in2="SourceAlpha" operator="in" result="effect1_backgroundBlur_4534_4216"/>
<feBlend mode="normal" in="SourceGraphic" in2="effect1_backgroundBlur_4534_4216" result="shape"/>
</filter>
</defs>
</svg>
