<svg width="32" height="32" viewBox="0 0 32 32" fill="none" xmlns="http://www.w3.org/2000/svg">
<path fill-rule="evenodd" clip-rule="evenodd" d="M16 4C9.37258 4 4 9.37258 4 16C4 22.6274 9.37258 28 16 28H24C24.93 28 25.395 28 25.7765 27.8978C26.8117 27.6204 27.6204 26.8117 27.8978 25.7765C28 25.395 28 24.93 28 24V16C28 9.37258 22.6274 4 16 4ZM11 14.6667C11 14.1144 11.4477 13.6667 12 13.6667H20C20.5523 13.6667 21 14.1144 21 14.6667C21 15.219 20.5523 15.6667 20 15.6667H12C11.4477 15.6667 11 15.219 11 14.6667ZM15 20C15 19.4477 15.4477 19 16 19H20C20.5523 19 21 19.4477 21 20C21 20.5523 20.5523 21 20 21H16C15.4477 21 15 20.5523 15 20Z" fill="white"/>
</svg>
