<svg width="32" height="32" viewBox="0 0 32 32" fill="none" xmlns="http://www.w3.org/2000/svg">
<path fill-rule="evenodd" clip-rule="evenodd" d="M4 16C4 9.37258 9.37259 4 16 4C22.6274 4 28 9.37258 28 16C28 22.6274 22.6274 28 16 28C9.37258 28 4 22.6274 4 16ZM14.6667 21.3333C14.6667 20.597 15.2636 20 16 20C16.7364 20 17.3333 20.597 17.3333 21.3333C17.3333 22.0697 16.7364 22.6667 16 22.6667C15.2636 22.6667 14.6667 22.0697 14.6667 21.3333ZM15 9.33333L15 17.3333L17 17.3333L17 9.33333L15 9.33333Z" fill="white"/>
</svg>
