<svg width="32" height="32" viewBox="0 0 32 32" fill="none" xmlns="http://www.w3.org/2000/svg">
<path d="M7.12391 13.8696H7.12326C6.13466 13.8696 5.33325 14.7253 5.33325 15.7809V24.7555C5.33325 25.811 6.13466 26.6667 7.12326 26.6667H7.12391C8.1125 26.6667 8.91391 25.811 8.91391 24.7555V15.7809C8.91391 14.7253 8.1125 13.8696 7.12391 13.8696Z" fill="white"/>
<path d="M21.9308 26.6667H12.2958C11.9953 26.6667 11.6978 26.6035 11.4202 26.4807C11.1426 26.358 10.8904 26.178 10.6779 25.9512C10.2489 25.493 10.0078 24.8717 10.0078 24.2238V14.7993C10.0078 14.2005 10.2137 13.6225 10.5863 13.175L16.4355 6.15256C16.773 5.7476 17.2271 5.47397 17.7263 5.3747C18.2255 5.27543 18.7414 5.35617 19.1929 5.60421C19.6706 5.86698 20.0465 6.30095 20.2547 6.83004C20.4628 7.35912 20.4898 7.94953 20.331 8.49776L18.9896 13.1313C18.9648 13.2166 18.9591 13.3069 18.9729 13.3949C18.9868 13.483 19.0199 13.5663 19.0695 13.6382C19.1191 13.71 19.1839 13.7684 19.2585 13.8087C19.3332 13.8489 19.4157 13.8697 19.4993 13.8696H24.3785C24.7405 13.8696 25.0974 13.9614 25.4198 14.1373C25.7422 14.3132 26.0209 14.5683 26.2329 14.8817C26.445 15.195 26.5844 15.5576 26.6397 15.9396C26.6949 16.3217 26.6645 16.7123 26.5509 17.0793L24.1032 24.9905C23.9522 25.4783 23.6609 25.9029 23.2709 26.2038C22.8809 26.5047 22.412 26.6667 21.9308 26.6667Z" fill="white"/>
</svg>
